<svg xmlns="http://www.w3.org/2000/svg" viewBox="0 0 64 64" role="img" aria-label="Cinder Halo">
<title>Cinder Halo</title>
<rect x="5" y="13" width="6" height="6" fill="#58d8e8" rx="4" ry="4" />
<rect x="45" y="13" width="6" height="6" fill="#df8d39" rx="4" ry="4" />
<rect x="13" y="21" width="6" height="6" fill="#58d8e8" rx="4" ry="4" />
<rect x="45" y="21" width="6" height="6" fill="#d94933" rx="4" ry="4" stroke="#df8d39" stroke-width="2" />
<rect x="53" y="21" width="6" height="6" fill="#df8d39" rx="4" ry="4" />
<rect x="5" y="29" width="6" height="6" fill="#58d8e8" rx="4" ry="4" />
<rect x="37" y="29" width="6" height="6" fill="#d94933" rx="4" ry="4" stroke="#df8d39" stroke-width="2" />
<rect x="45" y="29" width="6" height="6" fill="#df8d39" rx="4" ry="4" />
<rect x="53" y="29" width="6" height="6" fill="#d94933" rx="4" ry="4" stroke="#df8d39" stroke-width="2" />
<rect x="13" y="37" width="6" height="6" fill="#58d8e8" rx="4" ry="4" />
<rect x="45" y="37" width="6" height="6" fill="#d94933" rx="4" ry="4" stroke="#df8d39" stroke-width="2" />
<rect x="53" y="37" width="6" height="6" fill="#df8d39" rx="4" ry="4" />
<rect x="5" y="45" width="6" height="6" fill="#58d8e8" rx="4" ry="4" />
<rect x="45" y="45" width="6" height="6" fill="#df8d39" rx="4" ry="4" />
</svg>
