<svg xmlns="http://www.w3.org/2000/svg" viewBox="0 0 64 64" role="img" aria-label="Ember Chevron">
<title>Ember Chevron</title>
<rect x="5" y="22" width="5" height="5" fill="#58d8e8" rx="4" ry="4" />
<rect x="40" y="22" width="5" height="5" fill="#d94933" rx="4" ry="4" stroke="#df8d39" stroke-width="2" />
<rect x="47" y="22" width="5" height="5" fill="#df8d39" rx="4" ry="4" />
<rect x="12" y="29" width="5" height="5" fill="#58d8e8" rx="4" ry="4" />
<rect x="40" y="29" width="5" height="5" fill="#df8d39" rx="4" ry="4" />
<rect x="47" y="29" width="5" height="5" fill="#df8d39" rx="4" ry="4" />
<rect x="54" y="29" width="5" height="5" fill="#df8d39" rx="4" ry="4" />
<rect x="5" y="36" width="5" height="5" fill="#58d8e8" rx="4" ry="4" />
<rect x="40" y="36" width="5" height="5" fill="#d94933" rx="4" ry="4" stroke="#df8d39" stroke-width="2" />
<rect x="47" y="36" width="5" height="5" fill="#df8d39" rx="4" ry="4" />
</svg>
