<svg xmlns="http://www.w3.org/2000/svg" viewBox="0 0 64 64" role="img" aria-label="FrostLance">
<title>FrostLance</title>
<rect x="4" y="12" width="7" height="7" fill="#58d8e8" rx="1" ry="1" />
<rect x="52" y="12" width="7" height="7" fill="#d94933" stroke="#70aee4" stroke-width="2" rx="1" ry="1" />
<rect x="12" y="20" width="7" height="7" fill="#58d8e8" rx="1" ry="1" />
<rect x="52" y="20" width="7" height="7" fill="#d94933" stroke="#70aee4" stroke-width="2" rx="1" ry="1" />
<rect x="4" y="28" width="7" height="7" fill="#58d8e8" rx="1" ry="1" />
<rect x="52" y="28" width="7" height="7" fill="#d94933" stroke="#70aee4" stroke-width="2" rx="1" ry="1" />
<rect x="12" y="36" width="7" height="7" fill="#58d8e8" rx="1" ry="1" />
<rect x="52" y="36" width="7" height="7" fill="#d94933" stroke="#70aee4" stroke-width="2" rx="1" ry="1" />
<rect x="4" y="44" width="7" height="7" fill="#58d8e8" rx="1" ry="1" />
<rect x="52" y="44" width="7" height="7" fill="#d94933" stroke="#70aee4" stroke-width="2" rx="1" ry="1" />
</svg>
