<svg xmlns="http://www.w3.org/2000/svg" viewBox="0 0 64 64" role="img" aria-label="GlacierCrown">
<title>GlacierCrown</title>
<rect x="4" y="22" width="6" height="6" fill="#58d8e8" rx="1" ry="1" />
<rect x="39" y="22" width="6" height="6" fill="#70aee4" rx="1" ry="1" />
<rect x="53" y="22" width="6" height="6" fill="#70aee4" rx="1" ry="1" />
<rect x="11" y="29" width="6" height="6" fill="#58d8e8" rx="1" ry="1" />
<rect x="39" y="29" width="6" height="6" fill="#d94933" stroke="#70aee4" stroke-width="2" rx="1" ry="1" />
<rect x="46" y="29" width="6" height="6" fill="#70aee4" rx="1" ry="1" />
<rect x="53" y="29" width="6" height="6" fill="#d94933" stroke="#70aee4" stroke-width="2" rx="1" ry="1" />
<rect x="4" y="36" width="6" height="6" fill="#58d8e8" rx="1" ry="1" />
<rect x="39" y="36" width="6" height="6" fill="#70aee4" rx="1" ry="1" />
<rect x="53" y="36" width="6" height="6" fill="#70aee4" rx="1" ry="1" />
</svg>
