<svg xmlns="http://www.w3.org/2000/svg" viewBox="0 0 64 64" role="img" aria-label="Ma3">
<title>Ma3</title>
<rect x="52" y="12" width="7" height="7" fill="#70aee4" rx="1" ry="1" />
<rect x="12" y="20" width="7" height="7" fill="#58d8e8" rx="1" ry="1" />
<rect x="44" y="20" width="7" height="7" fill="#70aee4" rx="1" ry="1" />
<rect x="4" y="28" width="7" height="7" fill="#58d8e8" rx="1" ry="1" />
<rect x="12" y="28" width="7" height="7" fill="#58d8e8" rx="1" ry="1" />
<rect x="20" y="28" width="7" height="7" fill="#58d8e8" rx="1" ry="1" />
<rect x="36" y="28" width="7" height="7" fill="#70aee4" rx="1" ry="1" />
<rect x="12" y="36" width="7" height="7" fill="#58d8e8" rx="1" ry="1" />
<rect x="44" y="36" width="7" height="7" fill="#70aee4" rx="1" ry="1" />
<rect x="52" y="44" width="7" height="7" fill="#70aee4" rx="1" ry="1" />
</svg>
