<svg xmlns="http://www.w3.org/2000/svg" viewBox="0 0 64 64" role="img" aria-label="MirrorCorners">
<title>MirrorCorners</title>
<rect x="4" y="15" width="6" height="6" fill="#58d8e8" rx="1" ry="1" />
<rect x="18" y="15" width="6" height="6" fill="#58d8e8" rx="1" ry="1" />
<rect x="53" y="15" width="6" height="6" fill="#ddb151" rx="1" ry="1" />
<rect x="4" y="22" width="6" height="6" fill="#58d8e8" rx="1" ry="1" />
<rect x="18" y="22" width="6" height="6" fill="#58d8e8" rx="1" ry="1" />
<rect x="4" y="29" width="6" height="6" fill="#58d8e8" rx="1" ry="1" />
<rect x="18" y="29" width="6" height="6" fill="#58d8e8" rx="1" ry="1" />
<rect x="4" y="36" width="6" height="6" fill="#58d8e8" rx="1" ry="1" />
<rect x="18" y="36" width="6" height="6" fill="#58d8e8" rx="1" ry="1" />
<rect x="4" y="43" width="6" height="6" fill="#58d8e8" rx="1" ry="1" />
<rect x="18" y="43" width="6" height="6" fill="#58d8e8" rx="1" ry="1" />
<rect x="53" y="43" width="6" height="6" fill="#ddb151" rx="1" ry="1" />
</svg>
