<svg xmlns="http://www.w3.org/2000/svg" viewBox="0 0 64 64" role="img" aria-label="Ra9">
<title>Ra9</title>
<rect x="5" y="17" width="5" height="5" fill="#58d8e8" rx="1" ry="1" />
<rect x="17" y="17" width="5" height="5" fill="#58d8e8" rx="1" ry="1" />
<rect x="53" y="17" width="5" height="5" fill="#ddb151" rx="1" ry="1" />
<rect x="5" y="23" width="5" height="5" fill="#58d8e8" rx="1" ry="1" />
<rect x="17" y="23" width="5" height="5" fill="#58d8e8" rx="1" ry="1" />
<rect x="47" y="23" width="5" height="5" fill="#ddb151" rx="1" ry="1" />
<rect x="5" y="29" width="5" height="5" fill="#58d8e8" rx="1" ry="1" />
<rect x="17" y="29" width="5" height="5" fill="#58d8e8" rx="1" ry="1" />
<rect x="41" y="29" width="5" height="5" fill="#ddb151" rx="1" ry="1" />
<rect x="5" y="35" width="5" height="5" fill="#58d8e8" rx="1" ry="1" />
<rect x="17" y="35" width="5" height="5" fill="#58d8e8" rx="1" ry="1" />
<rect x="35" y="35" width="5" height="5" fill="#ddb151" rx="1" ry="1" />
<rect x="5" y="41" width="5" height="5" fill="#58d8e8" rx="1" ry="1" />
<rect x="17" y="41" width="5" height="5" fill="#58d8e8" rx="1" ry="1" />
<rect x="29" y="41" width="5" height="5" fill="#ddb151" rx="1" ry="1" />
</svg>
