<svg xmlns="http://www.w3.org/2000/svg" viewBox="0 0 64 64" role="img" aria-label="Twin Spire">
<title>Twin Spire</title>
<rect x="6" y="18" width="4" height="4" fill="#58d8e8" rx="4" ry="4" />
<rect x="18" y="18" width="4" height="4" fill="#58d8e8" rx="4" ry="4" />
<rect x="6" y="24" width="4" height="4" fill="#58d8e8" rx="4" ry="4" />
<rect x="18" y="24" width="4" height="4" fill="#58d8e8" rx="4" ry="4" />
<rect x="48" y="24" width="4" height="4" fill="#ddb151" rx="4" ry="4" />
<rect x="54" y="24" width="4" height="4" fill="#ddb151" rx="4" ry="4" />
<rect x="6" y="30" width="4" height="4" fill="#58d8e8" rx="4" ry="4" />
<rect x="18" y="30" width="4" height="4" fill="#58d8e8" rx="4" ry="4" />
<rect x="48" y="30" width="4" height="4" fill="#ddb151" rx="4" ry="4" />
<rect x="54" y="30" width="4" height="4" fill="#ddb151" rx="4" ry="4" />
<rect x="6" y="36" width="4" height="4" fill="#58d8e8" rx="4" ry="4" />
<rect x="18" y="36" width="4" height="4" fill="#58d8e8" rx="4" ry="4" />
<rect x="48" y="36" width="4" height="4" fill="#ddb151" rx="4" ry="4" />
<rect x="54" y="36" width="4" height="4" fill="#ddb151" rx="4" ry="4" />
<rect x="6" y="42" width="4" height="4" fill="#58d8e8" rx="4" ry="4" />
<rect x="18" y="42" width="4" height="4" fill="#58d8e8" rx="4" ry="4" />
</svg>
